<svg id="Capa_1" enable-background="new 0 0 502.208 502.208" height="512" viewBox="0 0 502.208 502.208" width="512" xmlns="http://www.w3.org/2000/svg"><g><g><g><path d="m425.531 266.116v206.092c0 11.046-8.954 20-20 20h-235.871c-5.304 0-10.391-2.107-14.142-5.858l-72.983-72.983c-3.751-3.751-5.858-8.838-5.858-14.142v-234.43h348.854v20.525" fill="#ffc144"/></g><g><path d="m162.669 490.485v-64.698c0-11.046-8.954-20-20-20h-64.698" fill="#ffe6b4"/></g><g fill="#faf7f5"><path d="m425.531 164.795v-134.795c0-11.046-8.954-20-20-20h-308.854c-11.046 0-20 8.954-20 20v134.795z"/><path d="m205.026 227.066h46.078v39.196h-46.078z"/><path d="m251.104 266.262h46.078v39.196h-46.078z"/><path d="m205.026 305.458h46.078v39.196h-46.078z"/><path d="m251.104 344.654h46.078v39.196h-46.078z"/></g></g><g><path d="m433.253 220.519c-4.911-7.513-16.833-4.713-18.189 4.023-1.417 9.129 9.755 15.076 16.589 8.934 3.635-3.266 4.303-8.906 1.6-12.957z"/><path d="m66.677 399.225c0 8.012 3.12 15.545 8.786 21.213l72.982 72.981c5.666 5.667 13.199 8.788 21.214 8.788h235.871c16.542 0 30-13.458 30-30v-206.091c0-12.84-20-12.859-20 0v206.092c0 5.514-4.486 10-10 10h-232.861v-56.42c0-16.542-13.458-30-30-30h-55.992v-220.993h328.854v10.525c0 12.84 20 12.859 20 0v-155.32c0-16.542-13.458-30-30-30h-308.854c-16.542 0-30 13.458-30 30zm85.992 26.562v43.571l-53.572-53.571h43.572c5.514 0 10 4.486 10 10zm-65.992-270.992v-124.795c0-5.514 4.486-10 10-10h308.854c5.514 0 10 4.486 10 10v124.795z"/><path d="m186.619 95.104c10.538-4.094 15.81-12.936 15.81-26.524 0-18.64-10.714-27.961-32.144-27.961h-27.045c-3.415 0-6.272 2.677-6.272 6.141v83.1c0 8.698 20.384 8.699 20.384 0v-31.49h8.624l17.9 34.756c5.03 9.731 23.903-1.832 18.684-9.146zm-7.579-15.222c-2.005 1.874-4.922 2.809-8.755 2.809h-12.935v-24.303h12.935c3.833 0 6.75.937 8.755 2.809 4.316 4.038 4.271 14.694 0 18.685z"/><path d="m264.492 46.628c-3.027-9.446-23.63-9.451-26.654 0l-24.303 79.703c-2.138 8.494 17.133 14.452 19.469 6.011l4.441-16.333h27.57l4.442 16.333c2.326 8.443 21.584 2.488 19.468-6.011zm-22.865 53.702 9.539-35.017 9.537 35.017z"/><path d="m352.949 95.104c10.538-4.094 15.81-12.936 15.81-26.524 0-18.64-10.714-27.961-32.144-27.961h-27.045c-3.415 0-6.272 2.677-6.272 6.141v83.1c0 8.698 20.384 8.699 20.384 0v-31.49h8.624l17.9 34.756c5.03 9.731 23.903-1.832 18.684-9.146zm-7.579-15.222c-2.005 1.874-4.922 2.809-8.755 2.809h-12.935v-24.303h12.935c3.833 0 6.75.937 8.755 2.809 4.316 4.038 4.271 14.694 0 18.685z"/><path d="m297.182 315.458c5.522 0 10-4.477 10-10v-39.196c0-5.523-4.478-10-10-10h-36.078v-29.196c0-5.523-4.478-10-10-10h-46.078c-5.522 0-10 4.477-10 10v39.196c0 5.523 4.478 10 10 10h36.078v19.196h-36.078c-5.522 0-10 4.477-10 10v39.196c0 5.523 4.478 10 10 10h36.078v29.196c0 5.523 4.478 10 10 10h46.078c5.522 0 10-4.477 10-10v-39.196c0-5.523-4.478-10-10-10h-36.078v-19.196zm-10-20h-26.078v-19.196h26.078zm-72.156-58.392h26.078v19.196h-26.078zm0 78.392h26.078v19.196h-26.078zm72.156 58.392h-26.078v-19.196h26.078z"/></g></g></svg>